<svg width="320" height="212" viewBox="0 0 320 212" fill="none" xmlns="http://www.w3.org/2000/svg">
<path d="M74 190.373C101.614 190.373 124 168.037 124 140.485C124 112.932 101.614 90.5967 74 90.5967C46.3858 90.5967 24 112.932 24 140.485C24 168.037 46.3858 190.373 74 190.373Z" stroke="white" stroke-width="3" stroke-linecap="round" stroke-linejoin="round"/>
<path d="M246 190.373C273.614 190.373 296 168.037 296 140.485C296 112.932 273.614 90.5967 246 90.5967C218.386 90.5967 196 112.932 196 140.485C196 168.037 218.386 190.373 246 190.373Z" stroke="white" stroke-width="3" stroke-linecap="round" stroke-linejoin="round"/>
<path d="M99.4 58.4688H119.3M139.2 58.4688H119.3M119.3 58.4688L128.259 90.4969M145.2 151.061L171.4 135.496L211.4 60.4643M145.2 151.061L137.218 122.525M145.2 151.061L72.2 141.682L78.9751 135.496M145.2 151.061H156.5H167.8M211.4 60.4643L207.5 49.8881M211.4 60.4643L217.4 76.6281L222.8 81.4173L248 144.077M207.5 49.8881L203.6 39.3118L210.6 36.3185L215 21.5516L203.6 23.9463M207.5 49.8881L165.8 115.142L137.218 122.525M137.218 122.525L128.259 90.4969M128.259 90.4969L122.2 96.0291M122.2 96.0291L111.8 88.6012L94.6 85.6744M122.2 96.0291L78.9751 135.496M86 84.2111L94.6 85.6744M94.6 85.6744V81.2178M94.6 81.2178H100.4L107.4 78.0249M94.6 81.2178L46.8 78.0249M46.8 78.0249L39.8 74.8321M46.8 78.0249L78.9751 135.496M167.8 151.061H180.369C180.948 151.061 181.335 151.656 181.1 152.183L179.411 155.975C179.283 156.263 178.996 156.449 178.68 156.449H166.473C165.884 156.449 165.497 155.834 165.752 155.304L167.8 151.061Z" stroke="white" stroke-width="3"/>
</svg>
