<svg width="320" height="212" viewBox="0 0 320 212" fill="none" xmlns="http://www.w3.org/2000/svg">
<path d="M247.6 190.373C270.133 190.373 288.4 172.147 288.4 149.664C288.4 127.181 270.133 108.956 247.6 108.956C225.067 108.956 206.8 127.181 206.8 149.664C206.8 172.147 225.067 190.373 247.6 190.373Z" stroke="white" stroke-width="3" stroke-linecap="round" stroke-linejoin="round"/>
<path d="M72 190.373C94.5332 190.373 112.8 172.147 112.8 149.664C112.8 127.181 94.5332 108.956 72 108.956C49.4668 108.956 31.2 127.181 31.2 149.664C31.2 172.147 49.4668 190.373 72 190.373Z" stroke="white" stroke-width="3" stroke-linecap="round" stroke-linejoin="round"/>
<path d="M72 190.373C79.2901 190.373 85.2 184.476 85.2 177.202C85.2 169.929 79.2901 164.032 72 164.032C64.7098 164.032 58.8 169.929 58.8 177.202C58.8 184.476 64.7098 190.373 72 190.373Z" stroke="white" stroke-width="3" stroke-linecap="round" stroke-linejoin="round"/>
<path d="M196.6 29.5338H206.8L219.4 60.8635L211 64.655L215.43 76.6281M247.4 149.465L241.2 146.272L215.43 76.6281M215.43 76.6281L135.4 115.042M215.43 76.6281L146.4 153.456M135.4 115.042L146.4 153.456M135.4 115.042L124.4 76.6281M135.4 115.042L72 150.662M146.4 153.456L72 150.662M124.4 76.6281L101.6 73.4353M124.4 76.6281H146.4M72 150.662V164.032M158 153.456H170.569C171.148 153.456 171.535 154.05 171.3 154.578L169.611 158.37C169.483 158.658 169.196 158.844 168.88 158.844H156.673C156.084 158.844 155.697 158.229 155.952 157.699L158 153.456ZM158 153.456H146.7" stroke="white" stroke-width="3"/>
</svg>
