<svg width="320" height="212" viewBox="0 0 320 212" fill="none" xmlns="http://www.w3.org/2000/svg">
<path d="M68 190.373C95.6142 190.373 118 168.037 118 140.485C118 112.932 95.6142 90.5967 68 90.5967C40.3858 90.5967 18 112.932 18 140.485C18 168.037 40.3858 190.373 68 190.373Z" stroke="white" stroke-width="3" stroke-linecap="round" stroke-linejoin="round"/>
<path d="M252 190.373C279.614 190.373 302 168.037 302 140.485C302 112.932 279.614 90.5967 252 90.5967C224.386 90.5967 202 112.932 202 140.485C202 168.037 224.386 190.373 252 190.373Z" stroke="white" stroke-width="3" stroke-linecap="round" stroke-linejoin="round"/>
<path d="M250.8 142.879L203.345 50.2872M194.6 23.9463L207.2 32.1279L196.8 37.5158L201.505 46.6952M201.505 46.6952L126.2 91.794M201.505 46.6952L203.345 50.2872M126.2 91.794L129.951 109.953M126.2 91.794L114 57.2715M137 144.077L182.877 79.2223M137 144.077L129.951 109.953M137 144.077L65.4 140.684L129.951 109.953M137 144.077H148.3H159.6M203.345 50.2872L182.877 79.2223M182.877 79.2223L167.8 83.2133L165.6 84.7676M129.951 109.953L142.8 100.876M114 57.2715L98.2 55.8746M114 57.2715L135.2 54.0787M142.8 100.876L146.8 104.166L143.2 96.5833L149.4 102.171L146.4 94.3882L152.6 100.375L149.8 92.5923L155.6 97.9802L152.6 90.3972L158.6 95.9846L155.6 88.4017L161.6 93.9891L158.6 86.4061L164.6 91.9936L161.4 84.0115L167.6 90.1976L165.6 84.7676M142.8 100.876L165.6 84.7676M159.6 144.077H172.169C172.748 144.077 173.135 144.671 172.9 145.199L171.211 148.991C171.083 149.279 170.796 149.465 170.48 149.465H158.273C157.684 149.465 157.297 148.85 157.552 148.32L159.6 144.077Z" stroke="white" stroke-width="3" stroke-linejoin="bevel"/>
</svg>
