<svg width="320" height="212" viewBox="0 0 320 212" fill="none" xmlns="http://www.w3.org/2000/svg">
<path d="M80 190.173C105.405 190.173 126 169.625 126 144.276C126 118.928 105.405 98.3793 80 98.3793C54.5949 98.3793 34 118.928 34 144.276C34 169.625 54.5949 190.173 80 190.173Z" stroke="white" stroke-width="3" stroke-linecap="round" stroke-linejoin="round"/>
<path d="M240 190.173C265.405 190.173 286 169.625 286 144.276C286 118.928 265.405 98.3793 240 98.3793C214.595 98.3793 194 118.928 194 144.276C194 169.625 214.595 190.173 240 190.173Z" stroke="white" stroke-width="3" stroke-linecap="round" stroke-linejoin="round"/>
<path d="M198.8 21.5516H211.6L210.4 37.7154L200 49.2894L207.2 67.6482M240.6 145.274L233 138.489L214.4 86.007L207.2 67.6482M207.2 67.6482L143 146.671M143 146.671L129.715 107.16M143 146.671L78.4 145.274M143 146.671H154.3H165.6M111.6 53.2804L99.6 50.8858M111.6 53.2804H130.2M111.6 53.2804L126.227 96.7828M162.4 130.906V114.343L129.715 107.16M129.715 107.16L126.227 96.7828M126.227 96.7828L122.093 100.973M78.4 145.274L122.093 100.973M78.4 145.274L83.8 91.9936M78.4 145.274L54.6 91.9936M122.093 100.973L98.4 91.9936M98.4 91.9936L103.2 81.2178M98.4 91.9936H83.8M43.4 96.7828L47.8 91.9936H54.6M83.8 91.9936H54.6M165.6 146.671H178.169C178.748 146.671 179.135 147.265 178.9 147.793L177.211 151.585C177.083 151.873 176.796 152.059 176.48 152.059H164.273C163.684 152.059 163.297 151.444 163.552 150.914L165.6 146.671Z" stroke="white" stroke-width="3" stroke-linejoin="bevel"/>
</svg>
