<svg width="320" height="212" viewBox="0 0 320 212" fill="none" xmlns="http://www.w3.org/2000/svg">
<path d="M79.8 190.173C97.9149 190.173 112.6 175.521 112.6 157.447C112.6 139.372 97.9149 124.72 79.8 124.72C61.6851 124.72 47 139.372 47 157.447C47 175.521 61.6851 190.173 79.8 190.173Z" stroke="white" stroke-width="3" stroke-linecap="round" stroke-linejoin="round"/>
<path d="M240.2 190.173C258.315 190.173 273 175.521 273 157.447C273 139.372 258.315 124.72 240.2 124.72C222.085 124.72 207.4 139.372 207.4 157.447C207.4 175.521 222.085 190.173 240.2 190.173Z" stroke="white" stroke-width="3" stroke-linecap="round" stroke-linejoin="round"/>
<path d="M209.4 12.3722L199.6 27.7377L216 105.763M216 105.763L231.4 145.673L243 161.637M216 105.763L160.206 121.527M125.6 131.305L136.2 152.458M125.6 131.305L160.206 121.527M125.6 131.305L107.2 67.2491L97.1 61.7614M136.2 152.458L160.206 121.527M136.2 152.458L75.6 159.442M136.2 152.458H147.5H158.8M160.206 121.527V115.74M160.206 121.527V127.314M160.206 121.527L119.6 112.947L113.935 118.933M75.6 159.442L113.935 118.933M75.6 159.442V136.494M87 56.2737L97.1 61.7614M97.1 61.7614L124.2 59.267M113.935 118.933L94.6 115.74M94.6 115.74H80.8M94.6 115.74L97.1 112.947M50.6 115.74L46.8 112.947M50.6 115.74L75.6 136.494M50.6 115.74H80.8M75.6 136.494L80.8 115.74M158.8 152.458H171.369C171.948 152.458 172.335 153.052 172.1 153.58L170.411 157.372C170.283 157.66 169.996 157.846 169.68 157.846H157.473C156.884 157.846 156.497 157.231 156.752 156.701L158.8 152.458Z" stroke="white" stroke-width="3" stroke-linejoin="bevel"/>
</svg>
