<svg width="320" height="212" viewBox="0 0 320 212" fill="none" xmlns="http://www.w3.org/2000/svg">
<path d="M70.8 190.373C98.4142 190.373 120.8 168.037 120.8 140.485C120.8 112.932 98.4142 90.5967 70.8 90.5967C43.1857 90.5967 20.8 112.932 20.8 140.485C20.8 168.037 43.1857 190.373 70.8 190.373Z" stroke="white" stroke-width="3" stroke-linecap="round" stroke-linejoin="round"/>
<path d="M249.2 190.373C276.814 190.373 299.2 168.037 299.2 140.485C299.2 112.932 276.814 90.5967 249.2 90.5967C221.586 90.5967 199.2 112.932 199.2 140.485C199.2 168.037 221.586 190.373 249.2 190.373Z" stroke="white" stroke-width="3" stroke-linecap="round" stroke-linejoin="round"/>
<path d="M123.4 85.4084L68.8 141.682L141.6 148.666M123.4 85.4084L111.6 47.8925L105.4 42.3051M123.4 85.4084L211 54.6773M123.4 85.4084L141.6 148.666M105.4 42.3051L85.2 36.9172M105.4 42.3051H132.4M211 54.6773L213.4 61.5619M211 54.6773L205.6 40.11L225.6 32.527L211.6 26.74H207.2M246.4 141.882L221.4 72.637L215.8 68.4464L213.4 61.5619M213.4 61.5619L141.6 148.666M141.6 148.666H152.9H164.2M164.2 148.666H176.769C177.348 148.666 177.735 149.261 177.5 149.789L175.811 153.58C175.683 153.869 175.396 154.054 175.08 154.054H162.873C162.284 154.054 161.897 153.44 162.152 152.91L164.2 148.666Z" stroke="white" stroke-width="3"/>
</svg>
