<svg width="132" height="132" viewBox="0 0 132 132" fill="none" xmlns="http://www.w3.org/2000/svg">
<path d="M66 109.875C90.2315 109.875 109.875 90.2315 109.875 66C109.875 41.7685 90.2315 22.125 66 22.125C41.7685 22.125 22.125 41.7685 22.125 66C22.125 90.2315 41.7685 109.875 66 109.875Z" stroke="#212121" stroke-width="1.625" stroke-linecap="round" stroke-linejoin="round"/>
<path d="M66 131C101.899 131 131 101.899 131 66C131 30.1015 101.899 1 66 1C30.1015 1 1 30.1015 1 66C1 101.899 30.1015 131 66 131Z" stroke="#212121" stroke-width="1.625" stroke-linecap="round" stroke-linejoin="round"/>
<path d="M52.667 60.2689C52.667 58.2793 54.2798 56.6665 56.2694 56.6665C57.3031 56.6665 58.2208 56.005 58.5477 55.0244L58.667 54.6665C58.7232 54.4977 58.7514 54.4134 58.7815 54.3385C59.1657 53.3827 60.0662 52.7337 61.0945 52.6714C61.175 52.6665 61.264 52.6665 61.4418 52.6665H70.5588C70.7367 52.6665 70.8256 52.6665 70.9062 52.6714C71.9345 52.7337 72.8349 53.3827 73.2192 54.3385C73.2493 54.4134 73.2774 54.4977 73.3337 54.6665L73.4529 55.0244C73.7798 56.005 74.6976 56.6665 75.7313 56.6665C77.7208 56.6665 79.3337 58.2793 79.3337 60.2689V71.5998C79.3337 73.84 79.3337 74.9602 78.8977 75.8158C78.5142 76.5684 77.9023 77.1804 77.1496 77.5639C76.294 77.9998 75.1739 77.9998 72.9337 77.9998H59.067C56.8268 77.9998 55.7067 77.9998 54.851 77.5639C54.0984 77.1804 53.4865 76.5684 53.103 75.8158C52.667 74.9602 52.667 73.84 52.667 71.5998V60.2689Z" stroke="#212121" stroke-width="1.5" stroke-linecap="round" stroke-linejoin="round"/>
<path d="M66.0003 71.9998C69.314 71.9998 72.0003 69.3135 72.0003 65.9998C72.0003 62.6861 69.314 59.9998 66.0003 59.9998C62.6866 59.9998 60.0003 62.6861 60.0003 65.9998C60.0003 69.3135 62.6866 71.9998 66.0003 71.9998Z" stroke="#212121" stroke-width="1.5" stroke-linecap="round" stroke-linejoin="round"/>
<path d="M117.025 67.746C118.161 66.8158 119.495 66.4308 121.027 66.5909C122.559 66.751 123.785 67.4036 124.705 68.5486C125.624 69.6937 126.003 71.0468 125.84 72.6081C125.677 74.1693 125.027 75.415 123.891 76.3452C122.754 77.2754 121.42 77.6604 119.888 77.5003C118.356 77.3402 117.13 76.6876 116.21 75.5426C115.291 74.3976 114.913 73.0445 115.076 71.4832C115.239 69.9219 115.888 68.6762 117.025 67.746ZM123.472 69.655C122.845 68.8935 121.97 68.454 120.845 68.3364C119.72 68.2189 118.773 68.4679 118.003 69.0834C117.232 69.6989 116.79 70.5546 116.676 71.6504C116.562 72.7365 116.819 73.6603 117.445 74.4217C118.07 75.1929 118.945 75.6373 120.07 75.7548C121.195 75.8724 122.143 75.6185 122.914 74.9933C123.684 74.3778 124.126 73.5269 124.24 72.4408C124.354 71.3451 124.098 70.4164 123.472 69.655Z" fill="#212121"/>
<path d="M114.561 77.2139L124.322 80.3014L122.052 87.4829L120.518 86.9978L122.281 81.4198L120.189 80.7582L119.352 83.4077C118.996 84.5326 118.429 85.3246 117.65 85.7838C116.868 86.2522 116.03 86.3453 115.138 86.063C114.246 85.7808 113.614 85.2231 113.243 84.39C112.87 83.5663 112.861 82.5919 113.216 81.467L114.561 77.2139ZM115.588 79.3027L114.75 81.9522C114.545 82.603 114.525 83.1337 114.692 83.5443C114.868 83.9579 115.193 84.2397 115.667 84.3897C116.141 84.5396 116.564 84.4946 116.937 84.2545C117.319 84.0173 117.612 83.5733 117.818 82.9226L118.656 80.2731L115.588 79.3027Z" fill="#212121"/>
<path d="M114.607 86.7673L113.788 88.3195C113.475 88.2646 113.147 88.2792 112.805 88.3633C112.073 88.5608 111.495 89.0606 111.072 89.8626C110.367 91.1992 110.488 92.1179 111.437 92.6186C111.816 92.8189 112.215 92.8146 112.634 92.6057C113.048 92.4055 113.433 91.9691 113.788 91.2964L114.402 90.1323L115.825 90.8834L115.21 92.0475C114.91 92.6166 114.803 93.1115 114.89 93.5322C114.972 93.9615 115.203 94.2762 115.582 94.4765C115.962 94.6768 116.352 94.6898 116.753 94.5154C117.149 94.3497 117.497 93.9822 117.797 93.4131C118.179 92.6887 118.259 92.0144 118.038 91.3901C117.926 91.0998 117.777 90.861 117.589 90.6736L118.415 89.1085C118.838 89.4973 119.177 89.9519 119.431 90.4722C119.955 91.6745 119.884 92.9051 119.22 94.1642C118.692 95.1645 118.012 95.8256 117.181 96.1475C116.354 96.4825 115.57 96.4543 114.828 96.0629C114.233 95.7488 113.854 95.2562 113.69 94.5853C113.617 94.3263 113.589 94.0247 113.605 93.6805L113.54 93.6464C113.282 93.8849 112.99 94.0726 112.664 94.2093C111.903 94.5023 111.178 94.4666 110.488 94.1025C109.695 93.6837 109.212 93.021 109.04 92.1143C108.864 91.2162 109.067 90.2153 109.649 89.1115C110.386 87.7145 111.433 86.9001 112.79 86.6683C113.416 86.5687 114.021 86.6017 114.607 86.7673Z" fill="#212121"/>
<path d="M107.926 95.145C109.385 94.9783 110.715 95.3772 111.916 96.3416C113.117 97.306 113.794 98.5185 113.947 99.9793C114.1 101.44 113.686 102.783 112.703 104.007C111.721 105.231 110.501 105.927 109.042 106.094C107.583 106.26 106.253 105.861 105.052 104.897C103.85 103.933 103.173 102.72 103.02 101.259C102.867 99.7986 103.282 98.4561 104.264 97.2317C105.246 96.0073 106.467 95.3118 107.926 95.145ZM112.312 100.242C112.198 99.2622 111.7 98.4185 110.818 97.7104C109.936 97.0024 109.004 96.6986 108.024 96.7991C107.043 96.8996 106.208 97.3795 105.519 98.2388C104.835 99.0905 104.551 100.006 104.665 100.986C104.773 101.973 105.268 102.82 106.15 103.528C107.032 104.236 107.966 104.536 108.953 104.428C109.934 104.328 110.766 103.852 111.449 103C112.138 102.14 112.426 101.221 112.312 100.242Z" fill="#212121"/>
<path d="M100.697 101.741L107.305 109.56L103.899 112.441C102.998 113.202 102.058 113.563 101.08 113.522C100.099 113.496 99.2948 113.11 98.6655 112.365C98.0361 111.621 97.7867 110.759 97.9171 109.78C98.0464 108.816 98.5614 107.952 99.4623 107.191L101.584 105.396L99.4129 102.827L100.697 101.741ZM102.623 106.625L100.501 108.419C99.9572 108.879 99.6478 109.351 99.5726 109.836C99.4962 110.335 99.6405 110.8 100.006 111.232C100.371 111.664 100.802 111.88 101.3 111.88C101.797 111.894 102.317 111.671 102.861 111.212L104.983 109.418L102.623 106.625Z" fill="#212121"/>
<path d="M89.5603 113.225L87.9415 113.903C87.7618 113.65 87.5369 113.454 87.2667 113.313C86.655 112.988 85.9759 112.982 85.2295 113.294C84.6089 113.554 84.1827 113.912 83.951 114.369C83.714 114.838 83.6914 115.302 83.8834 115.76C84.1017 116.282 84.4393 116.622 84.8962 116.779C85.348 116.949 85.8751 116.908 86.4777 116.656L88.771 115.696L89.3356 117.045L87.3494 120.255L87.3777 120.322L91.2898 118.684L91.9108 120.168L85.7053 122.767L85.09 121.296L86.7787 118.512L87.3403 117.96L87.312 117.892L87.1075 118.01C86.822 118.161 86.6523 118.248 86.5983 118.27C85.7529 118.624 84.9246 118.628 84.1134 118.28C83.3021 117.933 82.7084 117.309 82.332 116.41C81.9707 115.546 81.9967 114.674 82.4101 113.793C82.8234 112.912 83.5562 112.251 84.6085 111.81C86.0025 111.226 87.2392 111.29 88.3187 112.001C88.7834 112.303 89.1973 112.711 89.5603 113.225Z" fill="#212121"/>
<path d="M81.9143 116.822C82.0211 117.278 82.0328 117.776 81.9492 118.316C81.8584 118.868 81.7514 119.309 81.6284 119.638C81.4981 119.98 81.3133 120.408 81.0739 120.925L79.4971 124.45L77.575 124.901L79.0671 121.592L79.5666 120.903L79.5499 120.832L79.2886 120.999C79.0216 121.142 78.722 121.252 78.3898 121.33C77.4596 121.548 76.5927 121.396 75.7891 120.874C74.9783 120.363 74.4572 119.614 74.2256 118.627C73.9897 117.62 74.1522 116.691 74.7133 115.838C75.2744 114.985 76.115 114.428 77.2351 114.165C78.3552 113.902 79.3561 114.028 80.2378 114.542C81.1194 115.056 81.6783 115.816 81.9143 116.822ZM79.9692 118.841C80.2694 118.37 80.3482 117.831 80.2057 117.223C80.0632 116.616 79.7517 116.163 79.2713 115.865C78.7931 115.577 78.2312 115.508 77.5857 115.66C76.9403 115.811 76.4675 116.123 76.1674 116.594C75.8695 117.074 75.7918 117.618 75.9342 118.226C76.0767 118.833 76.3871 119.281 76.8653 119.57C77.3458 119.867 77.9087 119.941 78.5542 119.789C79.1996 119.638 79.6713 119.322 79.9692 118.841Z" fill="#212121"/>
<path d="M71.3933 116.804C72.3617 117.778 72.8795 119.054 72.9465 120.632C73.0135 122.21 72.6058 123.526 71.7234 124.578C70.841 125.63 69.7423 126.184 68.4272 126.24C67.1121 126.296 65.9704 125.837 65.002 124.864C64.0335 123.89 63.5158 122.614 63.4488 121.036C63.3818 119.458 63.7895 118.142 64.6719 117.09C65.5543 116.038 66.653 115.483 67.9681 115.428C69.2831 115.372 70.4249 115.831 71.3933 116.804ZM70.4793 123.548C71.0064 122.862 71.2443 121.915 71.1931 120.707C71.1418 119.499 70.8244 118.575 70.241 117.937C69.6479 117.298 68.913 116.998 68.0363 117.035C67.1596 117.072 66.4577 117.434 65.9306 118.12C65.3937 118.806 65.1509 119.753 65.2022 120.961C65.2535 122.169 65.5757 123.092 66.1688 123.731C66.7522 124.37 67.4822 124.67 68.359 124.633C69.2357 124.596 69.9424 124.234 70.4793 123.548Z" fill="#212121"/>
<path d="M49.4812 116.337C49.638 116.659 49.6559 116.995 49.535 117.346C49.414 117.696 49.1924 117.949 48.87 118.106C48.5477 118.263 48.2114 118.281 47.8612 118.16C47.511 118.039 47.2575 117.817 47.1007 117.495C46.9439 117.172 46.9259 116.836 47.0469 116.486C47.1678 116.136 47.3895 115.882 47.7119 115.725C48.0342 115.568 48.3705 115.551 48.7206 115.672C49.0708 115.793 49.3243 116.014 49.4812 116.337Z" fill="#212121"/>
<path d="M38.3257 109.088C38.5455 110.54 38.1956 111.884 37.276 113.12C36.3564 114.356 35.1697 115.077 33.716 115.283C32.2622 115.489 30.9058 115.123 29.6467 114.186C28.3876 113.248 27.6481 112.054 27.4283 110.601C27.2084 109.149 27.5583 107.805 28.4779 106.569C29.3975 105.333 30.5842 104.612 32.038 104.406C33.4917 104.2 34.8481 104.566 36.1072 105.503C37.3663 106.441 38.1058 107.636 38.3257 109.088ZM33.3941 113.657C34.3684 113.508 35.1931 112.979 35.8683 112.072C36.5435 111.164 36.8129 110.222 36.6768 109.246C36.5406 108.269 36.0306 107.452 35.1469 106.794C34.271 106.142 33.3459 105.891 32.3716 106.04C31.3894 106.184 30.5608 106.71 29.8856 107.617C29.2105 108.525 28.9449 109.47 29.0889 110.452C29.2251 111.429 29.7311 112.243 30.607 112.895C31.4908 113.553 32.4198 113.807 33.3941 113.657Z" fill="#212121"/>
<path d="M31.5244 102.191L23.9276 109.053L18.8803 103.463L20.0741 102.384L23.9943 106.726L25.6222 105.256L23.7601 103.193C22.9695 102.318 22.5731 101.428 22.5709 100.523C22.5621 99.6111 22.905 98.8415 23.5995 98.2141C24.2941 97.5866 25.0943 97.3236 26.0002 97.425C26.8996 97.5191 27.7446 98.004 28.5352 98.8797L31.5244 102.191ZM29.2035 102.021L27.3414 99.9581C26.8841 99.4515 26.4361 99.1663 25.9976 99.1026C25.5519 99.0453 25.1446 99.1834 24.7756 99.5167C24.4066 99.8501 24.2315 100.238 24.2504 100.681C24.262 101.13 24.4965 101.608 24.9539 102.115L26.816 104.177L29.2035 102.021Z" fill="#212121"/>
<path d="M23.2692 97.3912L22.3437 95.9001C22.549 95.6578 22.7018 95.3678 22.802 95.0301C23.0016 94.2978 22.8623 93.5465 22.3841 92.7761C21.5871 91.4921 20.733 91.133 19.822 91.6989C19.4575 91.9252 19.2596 92.2719 19.2283 92.739C19.1917 93.1979 19.374 93.7504 19.7751 94.3965L20.4693 95.5148L19.1026 96.3636L18.4085 95.2453C18.0691 94.6986 17.6961 94.3564 17.2893 94.2188C16.8774 94.0729 16.4893 94.1131 16.1249 94.3394C15.7604 94.5658 15.5522 94.8959 15.5003 95.3299C15.4432 95.7556 15.5844 96.2418 15.9237 96.7885C16.3556 97.4844 16.8969 97.8942 17.5476 98.0181C17.8543 98.0686 18.136 98.0601 18.3924 97.9926L19.3257 99.4962C18.7765 99.6651 18.2131 99.7281 17.6356 99.6851C16.334 99.5294 15.3078 98.8468 14.5571 97.6373C13.9606 96.6764 13.7335 95.7558 13.8756 94.8756C14.0044 93.9922 14.4249 93.3293 15.1372 92.8869C15.7087 92.532 16.3253 92.4531 16.9871 92.6504C17.2473 92.7183 17.5218 92.8463 17.8106 93.0342L17.8727 92.9956C17.7973 92.6522 17.7828 92.3054 17.8294 91.9551C17.961 91.1503 18.3581 90.5421 19.0207 90.1306C19.7826 89.6573 20.5982 89.5755 21.4674 89.885C22.3314 90.1862 23.0925 90.867 23.7507 91.9273C24.5837 93.2693 24.7575 94.5846 24.272 95.8731C24.0419 96.4637 23.7076 96.9697 23.2692 97.3912Z" fill="#212121"/>
<path d="M19.4275 87.4085C18.8313 88.7507 17.8131 89.6952 16.3729 90.2419C14.9327 90.7887 13.5444 90.7578 12.2082 90.1491C10.8719 89.5405 9.92531 88.5024 9.36848 87.0347C8.81165 85.5671 8.83132 84.1621 9.42747 82.8199C10.0236 81.4777 11.0418 80.5332 12.482 79.9865C13.9222 79.4397 15.3105 79.4707 16.6468 80.0793C17.9831 80.6879 18.9296 81.726 19.4864 83.1937C20.0433 84.6614 20.0236 86.0663 19.4275 87.4085ZM12.8115 88.606C13.7134 89.0041 14.693 89.0025 15.7504 88.6011C16.8077 88.1997 17.5418 87.5508 17.9525 86.6544C18.3633 85.758 18.3732 84.7948 17.9824 83.7647C17.5951 82.7437 16.9505 82.0341 16.0486 81.6361C15.1433 81.2289 14.1619 81.226 13.1046 81.6274C12.0472 82.0288 11.3149 82.6822 10.9076 83.5877C10.4968 84.4841 10.4851 85.4428 10.8725 86.4638C11.2633 87.4939 11.9097 88.208 12.8115 88.606Z" fill="#212121"/>
<path d="M17.3919 77.7808L7.29439 79.4681L6.55966 75.0684C6.36534 73.9047 6.53573 72.9125 7.07082 72.0916C7.59469 71.2626 8.33746 70.7678 9.29913 70.6071C10.2608 70.4464 11.1288 70.6721 11.9032 71.2841C12.6664 71.8881 13.1451 72.7719 13.3394 73.9355L13.7971 76.6763L17.1149 76.1219L17.3919 77.7808ZM12.2104 76.9415L11.7527 74.2007C11.6354 73.4986 11.3876 72.9914 11.0093 72.679C10.6197 72.3586 10.146 72.245 9.5882 72.3382C9.03043 72.4314 8.62419 72.692 8.36947 73.1201C8.10353 73.5402 8.02918 74.1012 8.14641 74.8032L8.60411 77.544L12.2104 76.9415Z" fill="#212121"/>
<path d="M13.1892 62.1729L13.4384 60.4357C13.7472 60.4111 14.0313 60.3189 14.2907 60.1591C14.8838 59.801 15.2378 59.2214 15.3527 58.4203C15.4482 57.7544 15.3596 57.2049 15.0868 56.7717C14.8058 56.3275 14.4192 56.0701 13.927 55.9995C13.3672 55.9191 12.9025 56.0347 12.5328 56.346C12.1548 56.6464 11.9194 57.1199 11.8267 57.7665L11.4736 60.2276L10.026 60.0198L8.29057 56.668L8.21818 56.6576L7.61596 60.8559L6.02353 60.6273L6.97878 53.968L8.55673 54.1944L10.0794 57.0725L10.2651 57.8379L10.3375 57.8483L10.3417 57.6125C10.3585 57.2898 10.371 57.0996 10.3793 57.0416C10.5094 56.1344 10.9318 55.4218 11.6463 54.9038C12.3608 54.3859 13.2007 54.1961 14.1658 54.3346C15.0923 54.4676 15.8276 54.9376 16.3718 55.7446C16.916 56.5516 17.1071 57.5197 16.9451 58.6489C16.7305 60.1448 16.0412 61.1737 14.8771 61.7355C14.3792 61.9793 13.8166 62.1251 13.1892 62.1729Z" fill="#212121"/>
<path d="M13.9692 53.8706C13.523 53.7294 13.089 53.4848 12.6673 53.1367C12.2393 52.7763 11.9152 52.459 11.6951 52.1849C11.4687 51.8985 11.1945 51.5204 10.8727 51.0504L8.64978 47.893L9.2449 46.0105L11.3262 48.985L11.6621 49.7662L11.7319 49.7883L11.7224 49.4785C11.7362 49.1761 11.7945 48.8622 11.8974 48.5368C12.1854 47.6257 12.7593 46.9585 13.6192 46.5351C14.4727 46.0995 15.3828 46.0346 16.3496 46.3404C17.335 46.6521 18.0507 47.267 18.4967 48.1853C18.9426 49.1035 18.9922 50.1111 18.6454 51.2081C18.2986 52.3051 17.6789 53.101 16.7862 53.5959C15.8936 54.0907 14.9546 54.1823 13.9692 53.8706ZM13.2287 51.1667C13.4801 51.6655 13.9032 52.009 14.4982 52.1972C15.0931 52.3854 15.6414 52.3492 16.143 52.0886C16.6354 51.825 16.9815 51.3772 17.1813 50.745C17.3811 50.1129 17.3554 49.5474 17.104 49.0486C16.8434 48.5469 16.4156 48.2019 15.8206 48.0138C15.2257 47.8256 14.6821 47.8632 14.1897 48.1268C13.6881 48.3874 13.3374 48.8338 13.1375 49.4659C12.9377 50.0981 12.9681 50.665 13.2287 51.1667Z" fill="#212121"/>
<path d="M19.3251 44.8479C17.9936 45.1838 16.6322 44.978 15.2409 44.2302C13.8496 43.4825 12.9265 42.4606 12.4716 41.1646C12.0167 39.8686 12.1007 38.6408 12.7235 37.4812C13.3463 36.3217 14.3234 35.5739 15.6549 35.2379C16.9863 34.9019 18.3477 35.1078 19.739 35.8555C21.1303 36.6032 22.0534 37.6251 22.5084 38.9211C22.9633 40.2172 22.8793 41.4449 22.2565 42.6045C21.6337 43.7641 20.6565 44.5119 19.3251 44.8479ZM13.9924 40.6204C14.3134 41.4239 15.0064 42.1118 16.0714 42.6841C17.1363 43.2565 18.0923 43.4548 18.9392 43.279C19.7908 43.0947 20.4242 42.616 20.8394 41.843C21.2546 41.0699 21.3017 40.2816 20.9807 39.4782C20.6643 38.6661 19.9736 37.974 18.9086 37.4016C17.8437 36.8293 16.8854 36.6353 16.0338 36.8196C15.1868 36.9954 14.5558 37.4697 14.1405 38.2428C13.7253 39.0158 13.6759 39.8084 13.9924 40.6204Z" fill="#212121"/>
<path d="M30.6176 26.4698C30.2602 26.4425 29.9609 26.2882 29.7197 26.007C29.4785 25.7258 29.3715 25.4064 29.3989 25.0489C29.4262 24.6914 29.5805 24.392 29.8616 24.1507C30.1428 23.9094 30.4621 23.8024 30.8195 23.8298C31.1769 23.8571 31.4762 24.0114 31.7174 24.2926C31.9586 24.5738 32.0655 24.8932 32.0382 25.2507C32.0108 25.6082 31.8566 25.9076 31.5754 26.1489C31.2943 26.3902 30.975 26.4972 30.6176 26.4698Z" fill="#212121"/>
<path d="M42.6149 20.371C41.2516 19.8256 40.27 18.8434 39.6701 17.4246C39.0701 16.0057 39.0493 14.617 39.6076 13.2586C40.1659 11.9002 41.1678 10.9152 42.6135 10.3035C44.0592 9.69189 45.4637 9.65876 46.827 10.2042C48.1903 10.7496 49.1719 11.7317 49.7719 13.1506C50.3718 14.5694 50.3926 15.9581 49.8343 17.3165C49.2761 18.6749 48.2741 19.6599 46.8284 20.2716C45.3827 20.8832 43.9782 20.9164 42.6149 20.371ZM41.1718 13.8037C40.8077 14.72 40.8459 15.699 41.2863 16.7407C41.7268 17.7824 42.4025 18.4917 43.3134 18.8685C44.2244 19.2454 45.1872 19.2191 46.2019 18.7898C47.2075 18.3643 47.8925 17.6934 48.2566 16.7771C48.6297 15.857 48.596 14.8761 48.1556 13.8344C47.7151 12.7927 47.0349 12.0853 46.115 11.7123C45.2041 11.3355 44.2458 11.3598 43.2401 11.7853C42.2254 12.2146 41.536 12.8874 41.1718 13.8037Z" fill="#212121"/>
<path d="M51.8983 17.9874L49.8657 7.95373L57.2474 6.45743L57.5668 8.03415L51.8334 9.19633L52.269 11.3464L54.9924 10.7944C56.1486 10.56 57.1164 10.6722 57.8958 11.131C58.6847 11.5879 59.1721 12.275 59.3579 13.1924C59.5437 14.1098 59.3622 14.9325 58.8134 15.6605C58.274 16.3866 57.4263 16.8669 56.27 17.1013L51.8983 17.9874ZM53.2272 16.0766L55.9506 15.5245C56.6195 15.3889 57.0931 15.1487 57.3714 14.8038C57.6478 14.4493 57.7366 14.0284 57.6379 13.5411C57.5392 13.0537 57.2945 12.7054 56.9039 12.496C56.5114 12.2772 55.9807 12.2355 55.3118 12.3711L52.5884 12.9231L53.2272 16.0766Z" fill="#212121"/>
<path d="M60.5201 13.2687L62.2747 13.2348C62.3781 13.5351 62.5492 13.8146 62.7883 14.0733C63.3156 14.619 64.0326 14.883 64.9392 14.8655C66.4502 14.8364 67.1953 14.2856 67.1746 13.2133C67.1663 12.7844 66.9695 12.4371 66.584 12.1715C66.2083 11.9057 65.6403 11.7802 64.8799 11.7949L63.5639 11.8203L63.5329 10.2118L64.8489 10.1864C65.4923 10.174 65.9771 10.0281 66.3032 9.74874C66.6392 9.46921 66.803 9.11498 66.7947 8.68606C66.7864 8.25714 66.6091 7.9095 66.2626 7.64314C65.9259 7.37659 65.4359 7.24952 64.7925 7.26194C63.9736 7.27775 63.3447 7.53369 62.9057 8.02976C62.7055 8.26767 62.5688 8.5141 62.4957 8.76906L60.7265 8.80322C60.862 8.24475 61.0958 7.72827 61.4279 7.25377C62.227 6.2144 63.3382 5.68097 64.7614 5.65349C65.8922 5.63166 66.7996 5.9067 67.4835 6.4786C68.177 7.04057 68.5318 7.74072 68.548 8.57907C68.5609 9.25169 68.3135 9.82208 67.8057 10.2902C67.6143 10.4792 67.3641 10.6498 67.0549 10.8021L67.0564 10.8752C67.3901 10.9857 67.6955 11.1505 67.9728 11.3694C68.5973 11.8937 68.9171 12.5458 68.9321 13.3257C68.9494 14.2225 68.6029 14.9654 67.8927 15.5545C67.1921 16.1434 66.218 16.4499 64.9702 16.474C63.391 16.5045 62.1717 15.9819 61.3123 14.9063C60.9223 14.4067 60.6583 13.8609 60.5201 13.2687Z" fill="#212121"/>
<path d="M71.0303 15.0297C70.1807 13.8318 69.8886 12.4741 70.154 10.9567C70.4193 9.43919 71.1548 8.26134 72.3605 7.4231C73.5662 6.58486 74.9421 6.30103 76.4884 6.57159C78.0347 6.84215 79.2326 7.57636 80.0822 8.77422C80.9318 9.97209 81.2239 11.3298 80.9586 12.8472C80.6932 14.3647 79.9577 15.5426 78.752 16.3808C77.5464 17.219 76.1704 17.5029 74.6241 17.2323C73.0779 16.9617 71.8799 16.2275 71.0303 15.0297ZM73.3792 8.72973C72.5763 9.30192 72.0775 10.1451 71.8827 11.2592C71.6879 12.3732 71.8709 13.3357 72.4319 14.1465C72.9929 14.9574 73.816 15.4577 74.9013 15.6476C75.9769 15.8358 76.9161 15.6438 77.719 15.0716C78.5314 14.5011 79.035 13.6588 79.2298 12.5447C79.4247 11.4306 79.2368 10.4673 78.6662 9.65484C78.1052 8.84402 77.2869 8.3445 76.2113 8.15629C75.126 7.96639 74.182 8.15754 73.3792 8.72973Z" fill="#212121"/>
<path d="M80.5418 18.2259L84.2449 8.68159L88.4032 10.2959C89.503 10.7229 90.2692 11.376 90.702 12.2552C91.1474 13.1289 91.1938 14.0202 90.8411 14.9292C90.4884 15.8382 89.8513 16.4694 88.9298 16.8229C88.0209 17.1707 87.0166 17.1312 85.9168 16.7042L83.3264 15.6986L82.1097 18.8346L80.5418 18.2259ZM83.9083 14.1988L86.4987 15.2044C87.1622 15.462 87.7249 15.5079 88.1866 15.342C88.661 15.1706 89.0005 14.8212 89.205 14.294C89.4096 13.7668 89.3928 13.2844 89.1547 12.8469C88.9293 12.4037 88.4848 12.0534 87.8213 11.7958L85.2309 10.7901L83.9083 14.1988Z" fill="#212121"/>
<path d="M95.8474 22.4146L97.2159 23.5133C97.08 23.7917 97.0148 24.0833 97.0205 24.3879C97.027 25.0808 97.3458 25.6806 97.9769 26.1872C98.5015 26.6083 99.0196 26.8117 99.5311 26.7973C100.056 26.7814 100.475 26.5795 100.786 26.1917C101.14 25.7506 101.277 25.2917 101.197 24.8149C101.13 24.3366 100.843 23.8929 100.333 23.484L98.3945 21.9275L99.3097 20.7868L103.078 20.9984L103.123 20.9414L99.816 18.2862L100.823 17.0314L106.069 21.243L105.071 22.4864L101.819 22.3327L101.066 22.1031L101.02 22.1601L101.221 22.2838C101.49 22.4624 101.648 22.57 101.693 22.6067C102.408 23.1804 102.807 23.9067 102.889 24.7856C102.971 25.6644 102.708 26.4841 102.097 27.2446C101.512 27.9746 100.733 28.3686 99.7616 28.4264C98.7901 28.4843 97.8597 28.1561 96.9701 27.442C95.7916 26.4959 95.2567 25.3787 95.3652 24.0905C95.4087 23.5378 95.5694 22.9791 95.8474 22.4146Z" fill="#212121"/>
<path d="M102.703 27.4057C103.052 27.0933 103.483 26.844 103.997 26.658C104.525 26.4727 104.963 26.3551 105.311 26.305C105.673 26.2557 106.138 26.212 106.706 26.1739L110.554 25.866L111.872 27.3363L108.253 27.6153L107.41 27.5071L107.355 27.556L107.627 27.7054C107.88 27.8712 108.12 28.0811 108.348 28.3352C108.986 29.0468 109.268 29.8805 109.195 30.8364C109.136 31.793 108.729 32.6099 107.974 33.2869C107.205 33.9769 106.312 34.2803 105.294 34.1972C104.277 34.1141 103.385 33.6441 102.617 32.7874C101.849 31.9306 101.479 30.992 101.507 29.9715C101.535 28.951 101.934 28.0957 102.703 27.4057ZM105.407 28.1437C104.85 28.1064 104.339 28.296 103.875 28.7127C103.41 29.1293 103.163 29.6199 103.132 30.1844C103.108 30.7425 103.318 31.2684 103.76 31.7621C104.203 32.2558 104.702 32.5214 105.26 32.5587C105.824 32.5895 106.339 32.3965 106.803 31.9799C107.268 31.5633 107.512 31.076 107.535 30.5179C107.566 29.9534 107.36 29.4242 106.918 28.9305C106.475 28.4368 105.972 28.1745 105.407 28.1437Z" fill="#212121"/>
<path d="M107.824 36.7154C108.211 35.3976 109.08 34.3294 110.431 33.5109C111.782 32.6924 113.131 32.4166 114.478 32.6834C115.825 32.9503 116.839 33.6467 117.521 34.7726C118.203 35.8985 118.35 37.1203 117.963 38.4381C117.575 39.7559 116.706 40.824 115.355 41.6425C114.004 42.461 112.655 42.7368 111.308 42.47C109.961 42.2032 108.947 41.5068 108.265 40.3809C107.583 39.255 107.436 38.0331 107.824 36.7154ZM114.173 34.2701C113.319 34.1383 112.374 34.3856 111.34 35.0121C110.306 35.6387 109.65 36.3614 109.37 37.1804C109.096 38.0076 109.186 38.7966 109.641 39.5472C110.095 40.2978 110.75 40.739 111.605 40.8708C112.465 41.011 113.412 40.7678 114.446 40.1413C115.48 39.5148 116.134 38.7879 116.408 37.9606C116.687 37.1416 116.6 36.3568 116.145 35.6062C115.691 34.8556 115.033 34.4102 114.173 34.2701Z" fill="#212121"/>
<path d="M117.87 55.8315C118.076 55.5381 118.361 55.3595 118.726 55.2956C119.091 55.2318 119.42 55.3028 119.714 55.5089C120.007 55.7149 120.186 56.0004 120.25 56.3653C120.313 56.7303 120.242 57.0595 120.036 57.3529C119.83 57.6463 119.545 57.8249 119.18 57.8888C118.815 57.9526 118.486 57.8815 118.192 57.6755C117.899 57.4695 117.72 57.184 117.656 56.8191C117.593 56.4541 117.664 56.1249 117.87 55.8315Z" fill="#212121"/>
</svg>
