<svg width="40" height="40" viewBox="0 0 40 40" fill="none" xmlns="http://www.w3.org/2000/svg">
<path d="M9.375 0H40V30.625L30.625 40H0V9.375L9.375 0Z" fill="#212121"/>
<path d="M15.4443 10.0769C14.2739 10.1322 13.4746 10.3189 12.7759 10.5935C12.0527 10.8753 11.4398 11.2535 10.83 11.8655C10.2201 12.4776 9.8446 13.0909 9.56476 13.8152C9.29394 14.5154 9.11046 15.3154 9.05876 16.4864C9.00706 17.6575 8.99562 18.0339 9.00134 21.0211C9.00706 24.0082 9.02026 24.3827 9.07702 25.5561C9.1329 26.7263 9.31902 27.5254 9.59358 28.2243C9.87584 28.9474 10.2536 29.5601 10.8658 30.1702C11.4781 30.7803 12.091 31.1549 12.817 31.4352C13.5166 31.7056 14.3168 31.8899 15.4876 31.9412C16.6584 31.9925 17.0353 32.0043 20.0216 31.9986C23.0079 31.9929 23.3838 31.9797 24.5571 31.924C25.7304 31.8684 26.5252 31.6809 27.2244 31.4077C27.9475 31.1248 28.5607 30.7477 29.1703 30.1352C29.7799 29.5227 30.1552 28.9089 30.4348 28.1843C30.7059 27.4847 30.89 26.6845 30.9408 25.5146C30.9921 24.3404 31.0042 23.9655 30.9985 20.9788C30.9928 17.9921 30.9793 17.6177 30.9237 16.4446C30.868 15.2716 30.6817 14.475 30.4073 13.7756C30.1246 13.0524 29.7473 12.4402 29.1353 11.8297C28.5233 11.2192 27.909 10.8441 27.1846 10.5651C26.4845 10.2943 25.6848 10.1097 24.514 10.0591C23.3431 10.0085 22.9663 9.99553 19.9789 10.0013C16.9915 10.007 16.6175 10.0197 15.4443 10.0769ZM15.5727 29.9623C14.5002 29.9157 13.9179 29.7375 13.5298 29.5883C13.0159 29.3903 12.6498 29.1509 12.2631 28.7679C11.8763 28.3849 11.6387 28.0175 11.4381 27.5047C11.2874 27.1166 11.1059 26.5349 11.0557 25.4624C11.0011 24.3032 10.9897 23.9552 10.9833 21.0184C10.9769 18.0816 10.9882 17.734 11.039 16.5744C11.0847 15.5028 11.264 14.9198 11.413 14.5319C11.611 14.0174 11.8495 13.6519 12.2334 13.2654C12.6173 12.8789 12.9836 12.6408 13.4968 12.4402C13.8845 12.2888 14.4661 12.1089 15.5382 12.0578C16.6983 12.0028 17.0459 11.9918 19.9822 11.9854C22.9185 11.9791 23.267 11.9901 24.4275 12.0411C25.4991 12.0877 26.0824 12.2653 26.4698 12.4151C26.9839 12.6131 27.3498 12.8509 27.7363 13.2355C28.1229 13.62 28.3611 13.985 28.5618 14.4994C28.7133 14.8859 28.8933 15.4674 28.9439 16.5401C28.9991 17.7002 29.0117 18.048 29.0169 20.9841C29.0222 23.9202 29.0119 24.2689 28.9611 25.4281C28.9142 26.5006 28.7364 27.0832 28.5871 27.4717C28.3891 27.9854 28.1504 28.3517 27.7662 28.738C27.3821 29.1243 27.0163 29.3624 26.5028 29.563C26.1156 29.7141 25.5332 29.8945 24.4621 29.9456C23.302 30.0001 22.9544 30.0116 20.017 30.018C17.0795 30.0243 16.733 30.0125 15.573 29.9623M24.5402 15.1209C24.5406 15.382 24.6184 15.6371 24.7639 15.8539C24.9093 16.0707 25.1158 16.2396 25.3572 16.3391C25.5985 16.4386 25.864 16.4642 26.12 16.4128C26.376 16.3614 26.611 16.2353 26.7952 16.0503C26.9795 15.8654 27.1048 15.6299 27.1553 15.3738C27.2057 15.1176 27.1791 14.8522 27.0787 14.6112C26.9783 14.3702 26.8087 14.1643 26.5914 14.0197C26.374 13.8751 26.1186 13.7982 25.8575 13.7987C25.5075 13.7994 25.1721 13.9391 24.9251 14.187C24.678 14.4349 24.5396 14.7709 24.5402 15.1209ZM14.352 21.0109C14.3581 24.1305 16.8916 26.6537 20.0106 26.6478C23.1295 26.6418 25.6545 24.1085 25.6485 20.9889C25.6426 17.8693 23.1084 15.3455 19.989 15.3517C16.8696 15.3578 14.346 17.8918 14.352 21.0109ZM16.3333 21.007C16.3318 20.2818 16.5455 19.5724 16.9472 18.9686C17.3489 18.3648 17.9207 17.8937 18.5901 17.6149C19.2596 17.336 19.9967 17.262 20.7082 17.402C21.4198 17.5421 22.0738 17.89 22.5876 18.4018C23.1015 18.9136 23.452 19.5663 23.5949 20.2773C23.7378 20.9882 23.6666 21.7257 23.3904 22.3962C23.1142 23.0668 22.6454 23.6404 22.0432 24.0445C21.441 24.4486 20.7325 24.665 20.0073 24.6665C19.5257 24.6675 19.0487 24.5736 18.6035 24.3902C18.1582 24.2069 17.7534 23.9376 17.4122 23.5978C17.0711 23.2579 16.8002 22.8542 16.6151 22.4097C16.4299 21.9652 16.3342 21.4885 16.3333 21.007Z" fill="white"/>
</svg>
