<svg width="60" height="60" viewBox="0 0 60 60" fill="none" xmlns="http://www.w3.org/2000/svg">
<path fill-rule="evenodd" clip-rule="evenodd" d="M12.9096 45.7228H13.7471L13.3328 44.2861L12.9096 45.7228ZM11.1946 47.1416L12.6557 42.9921H14.0055L15.4666 47.1416H14.1458L13.9899 46.5937H12.6691L12.5087 47.1416H11.1968H11.1946ZM15.7317 47.1416V42.9921H17.0659V46.0391H18.8789V47.1416H15.7339H15.7317ZM20.6407 44.8563H21.0684C21.3446 44.8563 21.5317 44.8252 21.6252 44.7628C21.7188 44.7004 21.7655 44.5913 21.7655 44.4331C21.7655 44.275 21.721 44.1636 21.6319 44.1013C21.5406 44.0389 21.3535 44.0077 21.0684 44.0077H20.6407V44.8563ZM19.3066 47.1416V42.9921H21.0149C21.3936 42.9921 21.692 43.0143 21.9125 43.0589C22.133 43.1034 22.3179 43.1725 22.4671 43.2705C22.6587 43.3997 22.8012 43.56 22.8948 43.7516C22.9883 43.9431 23.0373 44.1703 23.0373 44.4331C23.0373 44.8964 22.8993 45.2528 22.6253 45.5C22.3513 45.7473 21.9549 45.8698 21.4381 45.8698H20.6407V47.1394H19.3066V47.1416ZM23.4739 47.1416V42.9921H24.8304V47.1416H23.4739ZM25.5297 47.1416V42.9921H26.7926L28.1669 45.2684V42.9921H29.4365V47.1416H28.1669L26.7926 44.8742V47.1416H25.5297ZM30.1136 47.1416V42.9921H33.4301V43.9854H31.4455V44.5401H33.1227V45.4934H31.4455V46.1348H33.4301V47.1438H30.1136V47.1416ZM36.0584 46.1727H36.6753C36.8802 46.1727 37.025 46.1437 37.1119 46.0814C37.1987 46.0212 37.2411 45.9232 37.2411 45.7851C37.2411 45.647 37.1965 45.5513 37.1074 45.4911C37.0206 45.4332 36.8713 45.4043 36.662 45.4043H36.0561V46.1727H36.0584ZM36.0584 44.6492H36.6085C36.7911 44.6492 36.9226 44.6225 36.9961 44.5668C37.0718 44.5111 37.1097 44.4198 37.1097 44.2906C37.1097 44.1525 37.0696 44.0589 36.9894 44.0077C36.9092 43.9565 36.7221 43.932 36.4303 43.932H36.0606V44.647L36.0584 44.6492ZM34.7665 47.1416V42.9921H36.4682C36.8335 42.9921 37.1007 43.001 37.2678 43.021C37.4348 43.0411 37.5774 43.07 37.6977 43.1146C37.9093 43.1925 38.0696 43.3172 38.181 43.4821C38.2924 43.6491 38.3481 43.8518 38.3481 44.0901C38.3481 44.2772 38.3057 44.4421 38.2233 44.5824C38.1387 44.7227 38.014 44.8363 37.8469 44.9276C38.0674 45.0056 38.23 45.1258 38.3347 45.2818C38.4394 45.4399 38.4928 45.6448 38.4928 45.8965C38.4928 46.1482 38.4416 46.3553 38.3391 46.538C38.2367 46.7184 38.0875 46.8587 37.8937 46.9567C37.7623 47.0235 37.6108 47.0725 37.4415 47.0993C37.2723 47.1282 36.9916 47.1416 36.6018 47.1416H34.7665ZM39.0497 47.1416V42.9921H40.4061V47.1416H39.0497ZM41.1055 47.1416V42.9921H42.4263V44.3663L43.6202 42.9921H45.1659L43.6848 44.5222L45.3575 47.1416H43.7694L42.756 45.48L42.4263 45.8208V47.1416H41.1055ZM45.4934 47.1416V42.9921H48.8121V43.9854H46.8275V44.5401H48.5047V45.4934H46.8275V46.1348H48.8121V47.1438H45.4934V47.1416ZM30 0C38.2835 0 45.7851 3.35882 51.2132 8.78684C56.6412 14.2149 60 21.7165 60 30C60 38.2835 56.6412 45.7851 51.2132 51.2132C45.7851 56.6412 38.2835 60 30 60C21.7165 60 14.2149 56.6412 8.78684 51.2132C3.35882 45.7851 0 38.2857 0 30C0 21.7143 3.35882 14.2171 8.78684 8.78684C14.2171 3.35882 21.7165 0 30 0ZM49.2687 10.7335C54.2 15.6649 57.2492 22.4761 57.2492 30.0022C57.2492 37.5284 54.2 44.3396 49.2687 49.2709C44.3374 54.2022 37.5262 57.2515 30 57.2515C22.4738 57.2515 15.6626 54.2022 10.7313 49.2709C5.79998 44.3396 2.75076 37.5284 2.75076 30.0022C2.75076 22.4761 5.79998 15.6649 10.7313 10.7335C15.6626 5.80221 22.4738 2.75299 30 2.75299C37.5262 2.75299 44.3374 5.80221 49.2687 10.7335ZM27.717 29.9042C27.2715 29.8597 26.7525 29.5612 27.3539 29.2806C28.4943 28.7482 32.9579 29.6325 33.4011 27.1045C33.9825 23.7813 25.2669 23.8837 23.5942 23.8882C25.4317 24.0575 27.5789 24.4651 29.0512 25.1934C29.6369 25.5097 30.5323 26.3739 29.657 26.904C28.6124 27.5388 23.3002 26.4608 23.0218 29.2271C22.7634 31.7841 25.9997 31.8754 27.6992 32.1627C31.8665 32.871 33.3321 37.6442 25.1979 37.4527L12.2459 37.1497L18.7943 22.7901L21.1241 26.3115L28.8262 13.9498L31.871 19.6696L32.9557 18.0771L44.0478 40.7157L54.1711 41.012L30 5.84453L20.8434 21.5072L18.4802 19.0036L5.8334 41.012L33.9557 40.1901C36.8713 40.1745 40.5643 38.9806 39.8782 35.408C38.9695 30.6637 31.479 30.274 27.717 29.9042Z" fill="currentColor"/>
</svg>
