<svg width="40" height="40" viewBox="0 0 40 40" fill="none" xmlns="http://www.w3.org/2000/svg">
<path d="M9.375 0H40V30.625L30.625 40H0V9.375L9.375 0Z" fill="currentColor"/>
<path d="M20.949 27.5C13.6887 27.5 9.54755 22.5732 9.375 14.375H13.0118C13.1312 20.3923 15.8124 22.9411 17.9361 23.4666V14.375H21.3605V19.5646C23.4576 19.3412 25.6609 16.9764 26.4042 14.375H29.8286C29.5485 15.7241 28.9902 17.0015 28.1886 18.1273C27.387 19.2531 26.3593 20.2031 25.1698 20.9178C26.4975 21.5708 27.6703 22.4952 28.6106 23.6298C29.5509 24.7644 30.2375 26.0835 30.625 27.5H26.8555C26.5076 26.2696 25.8007 25.1683 24.8232 24.3339C23.8457 23.4995 22.6411 22.9693 21.3605 22.8097V27.5H20.949Z" fill="white"/>
</svg>
