<svg width="40" height="40" viewBox="0 0 40 40" fill="none" xmlns="http://www.w3.org/2000/svg">
<path d="M9.375 0H40V30.625L30.625 40H0V9.375L9.375 0Z" fill="currentColor"/>
<path fill-rule="evenodd" clip-rule="evenodd" d="M28.302 12.7841C29.216 13.0366 29.9368 13.7792 30.1807 14.7223C30.625 16.4328 30.625 19.9998 30.625 19.9998C30.625 19.9998 30.625 23.568 30.1807 25.2772C29.9368 26.2204 29.216 26.963 28.302 27.2155C26.6455 27.6734 20 27.6734 20 27.6734C20 27.6734 13.3558 27.6734 11.698 27.2155C10.784 26.963 10.0632 26.2204 9.81932 25.2772C9.375 23.5668 9.375 19.9998 9.375 19.9998C9.375 19.9998 9.375 16.4328 9.81932 14.7223C10.0632 13.7792 10.784 13.0366 11.698 12.7841C13.3545 12.3262 20 12.3262 20 12.3262C20 12.3262 26.6455 12.3262 28.302 12.7841ZM23.5417 19.9998L17.6389 22.9512V17.0484L23.5417 19.9998Z" fill="white"/>
</svg>
