<?xml version="1.0" encoding="utf-8"?><svg width="320" height="212" fill="none" xmlns="http://www.w3.org/2000/svg" viewBox="0 0 320 212"><path d="M80 190.173c25.405 0 46-20.548 46-45.897 0-25.348-20.595-45.897-46-45.897s-46 20.549-46 45.897c0 25.349 20.595 45.897 46 45.897zM240 190.173c25.405 0 46-20.548 46-45.897 0-25.348-20.595-45.897-46-45.897s-46 20.549-46 45.897c0 25.349 20.595 45.897 46 45.897z" stroke="#fff" stroke-width="3" stroke-linecap="round" stroke-linejoin="round"/><path d="M198.8 21.552h12.8l-1.2 16.163L200 49.29l7.2 18.36m33.4 77.625l-7.6-6.785-18.6-52.482-7.2-18.359m0 0L143 146.671m0 0l-13.285-39.511M143 146.671l-64.6-1.397m64.6 1.397h22.6m-54-93.39l-12-2.395m12 2.394h18.6m-18.6 0l14.627 43.503m36.173 34.123v-16.563l-32.685-7.183m0 0l-3.488-10.377m0 0l-4.134 4.19M78.4 145.274l43.693-44.301M78.4 145.274l5.4-53.28m-5.4 53.28l-23.8-53.28m67.493 8.979L98.4 91.993m0 0l4.8-10.775m-4.8 10.776H83.8m-40.4 4.789l4.4-4.79h6.8m29.2 0H54.6m111 54.678h12.569c.579 0 .966.594.731 1.122l-1.689 3.792a.8.8 0 01-.731.474h-12.207a.8.8 0 01-.721-1.145l2.048-4.243z" stroke="#fff" stroke-width="3" stroke-linejoin="bevel"/></svg>