<?xml version="1.0" encoding="utf-8"?><svg width="320" height="212" fill="none" xmlns="http://www.w3.org/2000/svg" viewBox="0 0 320 212"><path d="M70.8 190.373c27.614 0 50-22.336 50-49.888 0-27.553-22.386-49.888-50-49.888s-50 22.335-50 49.888c0 27.552 22.386 49.888 50 49.888zM249.2 190.373c27.614 0 50-22.336 50-49.888 0-27.553-22.386-49.888-50-49.888s-50 22.335-50 49.888c0 27.552 22.386 49.888 50 49.888z" stroke="#fff" stroke-width="3" stroke-linecap="round" stroke-linejoin="round"/><path d="M123.4 85.408l-54.6 56.274 72.8 6.984m-18.2-63.258l-11.8-37.516-6.2-5.587m18 43.103l87.6-30.73m-87.6 30.73l18.2 63.258m-36.2-106.36l-20.2-5.389m20.2 5.388h27M211 54.677l2.4 6.885m-2.4-6.885l-5.4-14.567 20-7.583-14-5.787h-4.4m39.2 115.142l-25-69.245-5.6-4.19-2.4-6.885m0 0l-71.8 87.104m0 0h22.6m0 0h12.569c.579 0 .966.595.731 1.123l-1.689 3.791a.799.799 0 01-.731.474h-12.207a.798.798 0 01-.721-1.144l2.048-4.244z" stroke="#fff" stroke-width="3"/></svg>