<?xml version="1.0" encoding="utf-8"?><svg width="320" height="212" fill="none" xmlns="http://www.w3.org/2000/svg" viewBox="0 0 320 212"><path d="M68 190.373c27.614 0 50-22.336 50-49.888 0-27.553-22.386-49.888-50-49.888s-50 22.335-50 49.888c0 27.552 22.386 49.888 50 49.888zM252 190.373c27.614 0 50-22.336 50-49.888 0-27.553-22.386-49.888-50-49.888s-50 22.335-50 49.888c0 27.552 22.386 49.888 50 49.888z" stroke="#fff" stroke-width="3" stroke-linecap="round" stroke-linejoin="round"/><path d="M250.8 142.879l-47.455-92.592m-8.745-26.34l12.6 8.18-10.4 5.389 4.705 9.18m0 0L126.2 91.793m75.305-45.099l1.84 3.592M126.2 91.794l3.751 18.159M126.2 91.794L114 57.272m23 86.805l45.877-64.855M137 144.077l-7.049-34.124M137 144.077l-71.6-3.393 64.551-30.731M137 144.077h22.6m43.745-93.79l-20.468 28.935m0 0L167.8 83.213l-2.2 1.555m-35.649 25.185l12.849-9.077M114 57.271l-15.8-1.396m15.8 1.397l21.2-3.193m7.6 46.797l4 3.29-3.6-7.583 6.2 5.588-3-7.783 6.2 5.987-2.8-7.783 5.8 5.388-3-7.583 6 5.588-3-7.583 6 5.587-3-7.583 6 5.588-3.2-7.983 6.2 6.187-2-5.43m-22.8 16.108l22.8-16.108m-6 59.309h12.569c.579 0 .966.594.731 1.122l-1.689 3.792a.8.8 0 01-.731.474h-12.207a.8.8 0 01-.721-1.145l2.048-4.243z" stroke="#fff" stroke-width="3" stroke-linejoin="bevel"/></svg>