<?xml version="1.0" encoding="utf-8"?><svg width="320" height="212" fill="none" xmlns="http://www.w3.org/2000/svg" viewBox="0 0 320 212"><path d="M74 190.373c27.614 0 50-22.336 50-49.888 0-27.553-22.386-49.888-50-49.888s-50 22.335-50 49.888c0 27.552 22.386 49.888 50 49.888zM246 190.373c27.614 0 50-22.336 50-49.888 0-27.553-22.386-49.888-50-49.888s-50 22.335-50 49.888c0 27.552 22.386 49.888 50 49.888z" stroke="#fff" stroke-width="3" stroke-linecap="round" stroke-linejoin="round"/><path d="M99.4 58.469h19.9m19.9 0h-19.9m0 0l8.959 32.028M145.2 151.06l26.2-15.565 40-75.032m-66.2 90.597l-7.982-28.536m7.982 28.536l-73-9.379 6.775-6.186m66.225 15.565h22.6m43.6-90.597l-3.9-10.576m3.9 10.576l6 16.164 5.4 4.79 25.2 62.659m-40.5-94.189l-3.9-10.576 7-2.993 4.4-14.767-11.4 2.394m3.9 25.942l-41.7 65.254-28.582 7.383m0 0l-8.959-32.028m0 0l-6.059 5.532m0 0l-10.4-7.428-17.2-2.927m27.6 10.355l-43.225 39.467M86 84.211l8.6 1.463m0 0v-4.456m0 0h5.8l7-3.193m-12.8 3.193l-47.8-3.193m0 0l-7-3.193m7 3.193l32.175 57.471m88.825 15.565h12.569c.579 0 .966.595.731 1.122l-1.689 3.792a.8.8 0 01-.731.474h-12.207a.8.8 0 01-.721-1.145l2.048-4.243z" stroke="#fff" stroke-width="3"/></svg>