<?xml version="1.0" encoding="utf-8"?><svg width="320" height="212" fill="none" xmlns="http://www.w3.org/2000/svg" viewBox="0 0 320 212"><path d="M79.8 190.173c18.115 0 32.8-14.652 32.8-32.726 0-18.075-14.685-32.727-32.8-32.727-18.115 0-32.8 14.652-32.8 32.727 0 18.074 14.685 32.726 32.8 32.726zM240.2 190.173c18.115 0 32.8-14.652 32.8-32.726 0-18.075-14.685-32.727-32.8-32.727-18.115 0-32.8 14.652-32.8 32.727 0 18.074 14.685 32.726 32.8 32.726z" stroke="#fff" stroke-width="3" stroke-linecap="round" stroke-linejoin="round"/><path d="M209.4 12.372l-9.8 15.366 16.4 78.025m0 0l15.4 39.91 11.6 15.964m-27-55.874l-55.794 15.764m-34.606 9.778l10.6 21.153m-10.6-21.153l34.606-9.778m-34.606 9.778l-18.4-64.056-10.1-5.488m39.1 90.697l24.006-30.931M136.2 152.458l-60.6 6.984m60.6-6.984h22.6m1.406-30.931v-5.787m0 5.787v5.787m0-5.787l-40.606-8.58-5.665 5.986M75.6 159.442l38.335-40.509M75.6 159.442v-22.948M87 56.274l10.1 5.487m0 0l27.1-2.494m-10.265 59.666L94.6 115.74m0 0H80.8m13.8 0l2.5-2.793m-46.5 2.793l-3.8-2.793m3.8 2.793l25 20.754m-25-20.754h30.2m-5.2 20.754l5.2-20.754m78 36.718h12.569c.579 0 .966.595.731 1.122l-1.689 3.792a.8.8 0 01-.731.474h-12.207a.799.799 0 01-.721-1.145l2.048-4.243z" stroke="#fff" stroke-width="3" stroke-linejoin="bevel"/></svg>