<?xml version="1.0" encoding="utf-8"?><svg width="320" height="212" fill="none" xmlns="http://www.w3.org/2000/svg" viewBox="0 0 320 212"><path d="M247.6 190.373c22.533 0 40.8-18.226 40.8-40.709 0-22.483-18.267-40.708-40.8-40.708-22.533 0-40.8 18.225-40.8 40.708 0 22.483 18.267 40.709 40.8 40.709zM72 190.373c22.533 0 40.8-18.226 40.8-40.709 0-22.483-18.267-40.708-40.8-40.708-22.533 0-40.8 18.225-40.8 40.708 0 22.483 18.267 40.709 40.8 40.709z" stroke="#fff" stroke-width="3" stroke-linecap="round" stroke-linejoin="round"/><path d="M72 190.373c7.29 0 13.2-5.897 13.2-13.171 0-7.273-5.91-13.17-13.2-13.17-7.29 0-13.2 5.897-13.2 13.17 0 7.274 5.91 13.171 13.2 13.171z" stroke="#fff" stroke-width="3" stroke-linecap="round" stroke-linejoin="round"/><path d="M196.6 29.534h10.2l12.6 31.33-8.4 3.791 4.43 11.973m31.97 72.837l-6.2-3.193-25.77-69.644m0 0l-80.03 38.414m80.03-38.414l-69.03 76.828m-11-38.414l11 38.414m-11-38.414l-11-38.414m11 38.414L72 150.662m74.4 2.794L72 150.662m52.4-74.034l-22.8-3.193m22.8 3.193h22M72 150.662v13.37m86-10.576h12.569c.579 0 .966.594.731 1.122l-1.689 3.792a.8.8 0 01-.731.474h-12.207a.8.8 0 01-.721-1.145l2.048-4.243zm0 0h-11.3" stroke="#fff" stroke-width="3"/></svg>