<?xml version="1.0" encoding="utf-8"?><svg width="132" height="132" fill="none" xmlns="http://www.w3.org/2000/svg" viewBox="0 0 132 132"><path d="M66 109.875c24.231 0 43.875-19.644 43.875-43.875S90.231 22.125 66 22.125 22.125 41.769 22.125 66 41.769 109.875 66 109.875z" stroke="#212121" stroke-width="1.625" stroke-linecap="round" stroke-linejoin="round"/><path d="M66 131c35.899 0 65-29.101 65-65 0-35.898-29.101-65-65-65C30.102 1 1 30.102 1 66c0 35.899 29.102 65 65 65z" stroke="#212121" stroke-width="1.625" stroke-linecap="round" stroke-linejoin="round"/><path d="M52.667 60.269a3.602 3.602 0 013.602-3.602 2.402 2.402 0 002.279-1.643l.119-.358a6.1 6.1 0 01.114-.327 2.667 2.667 0 012.313-1.668c.081-.005.17-.005.348-.005h9.117c.178 0 .267 0 .347.005a2.667 2.667 0 012.313 1.668c.03.074.058.159.115.328l.119.357a2.402 2.402 0 002.278 1.642 3.602 3.602 0 013.603 3.603v11.33c0 2.241 0 3.361-.436 4.217a4 4 0 01-1.748 1.748c-.856.436-1.976.436-4.216.436H59.067c-2.24 0-3.36 0-4.216-.436a4 4 0 01-1.748-1.748c-.436-.856-.436-1.976-.436-4.216V60.269z" stroke="#212121" stroke-width="1.5" stroke-linecap="round" stroke-linejoin="round"/><path d="M66 72a6 6 0 100-12 6 6 0 000 12z" stroke="#212121" stroke-width="1.5" stroke-linecap="round" stroke-linejoin="round"/><path d="M117.025 67.746c1.136-.93 2.47-1.315 4.002-1.155 1.532.16 2.758.813 3.678 1.958.919 1.145 1.298 2.498 1.135 4.06-.163 1.56-.813 2.806-1.949 3.736-1.137.93-2.471 1.315-4.003 1.155-1.532-.16-2.758-.812-3.678-1.957-.919-1.145-1.297-2.499-1.134-4.06.163-1.561.812-2.807 1.949-3.737zm6.447 1.909c-.627-.761-1.502-1.201-2.627-1.319-1.125-.117-2.072.132-2.842.747-.771.616-1.213 1.472-1.327 2.567-.114 1.087.143 2.01.769 2.772.625.77 1.5 1.215 2.625 1.333 1.125.117 2.073-.136 2.844-.762.77-.615 1.212-1.466 1.326-2.552.114-1.096-.142-2.025-.768-2.786zM114.561 77.214l9.761 3.087-2.27 7.182-1.534-.485 1.763-5.578-2.092-.662-.837 2.65c-.356 1.125-.923 1.917-1.702 2.376-.782.468-1.62.561-2.512.279-.892-.282-1.524-.84-1.895-1.673-.373-.824-.382-1.798-.027-2.923l1.345-4.253zm1.027 2.089l-.838 2.65c-.205.65-.225 1.18-.058 1.591.176.414.501.696.975.846.474.15.897.105 1.27-.136.382-.237.675-.68.881-1.331l.838-2.65-3.068-.97zM114.607 86.767l-.819 1.553a2.37 2.37 0 00-.983.043c-.732.198-1.31.698-1.733 1.5-.705 1.336-.584 2.255.365 2.756.379.2.778.196 1.197-.013.414-.2.799-.637 1.154-1.31l.614-1.164 1.423.751-.615 1.165c-.3.569-.407 1.064-.32 1.484.082.43.313.744.692.945.38.2.77.213 1.171.038.396-.165.744-.533 1.044-1.102.382-.724.462-1.399.241-2.023a2.021 2.021 0 00-.449-.716l.826-1.566c.423.39.762.844 1.016 1.364.524 1.203.453 2.433-.211 3.692-.528 1-1.208 1.662-2.039 1.983-.827.335-1.611.307-2.353-.084-.595-.314-.974-.807-1.138-1.478a2.857 2.857 0 01-.085-.904l-.065-.035c-.258.239-.55.427-.876.563-.761.293-1.486.258-2.176-.106-.793-.42-1.276-1.082-1.448-1.989-.176-.898.027-1.899.609-3.002.737-1.397 1.784-2.212 3.141-2.444a4.184 4.184 0 011.817.1zM107.926 95.145c1.459-.167 2.789.232 3.99 1.197 1.201.964 1.878 2.177 2.031 3.637.153 1.461-.261 2.804-1.244 4.028-.982 1.224-2.202 1.92-3.661 2.087-1.459.166-2.789-.233-3.99-1.197-1.202-.964-1.879-2.177-2.032-3.638-.153-1.46.262-2.803 1.244-4.027.982-1.225 2.203-1.92 3.662-2.087zm4.386 5.097c-.114-.98-.612-1.824-1.494-2.532s-1.814-1.011-2.794-.91c-.981.1-1.816.58-2.505 1.439-.684.852-.968 1.767-.854 2.747.108.987.603 1.834 1.485 2.542.882.708 1.816 1.008 2.803.9.981-.1 1.813-.576 2.496-1.428.689-.86.977-1.779.863-2.758zM100.697 101.741l6.608 7.819-3.406 2.881c-.901.761-1.841 1.122-2.819 1.081-.981-.026-1.785-.412-2.415-1.157-.629-.744-.878-1.606-.748-2.585.13-.964.644-1.828 1.545-2.589l2.122-1.795-2.171-2.569 1.284-1.086zm1.926 4.884l-2.122 1.794c-.544.46-.853.932-.928 1.417-.077.499.068.964.433 1.396.365.432.796.648 1.294.648.497.014 1.017-.209 1.561-.668l2.122-1.794-2.36-2.793zM89.56 113.225l-1.618.678a1.888 1.888 0 00-.675-.59c-.612-.325-1.291-.331-2.037-.019-.621.26-1.047.618-1.279 1.075-.237.469-.26.933-.068 1.391.219.522.556.862 1.013 1.019.452.17.98.129 1.582-.123l2.293-.96.565 1.349-1.987 3.21.029.067 3.912-1.638.62 1.484-6.205 2.599-.615-1.471 1.689-2.784.561-.552-.028-.068-.204.118a9.968 9.968 0 01-.51.26c-.845.354-1.673.358-2.485.01-.81-.347-1.405-.971-1.781-1.87-.361-.864-.335-1.736.078-2.617.413-.881 1.146-1.542 2.199-1.983 1.394-.584 2.63-.52 3.71.191.464.302.878.71 1.241 1.224zM81.914 116.822a3.9 3.9 0 01.035 1.494c-.09.552-.198.993-.32 1.322-.13.342-.316.77-.555 1.287l-1.577 3.525-1.922.451 1.492-3.309.5-.689-.017-.071-.261.167a3.673 3.673 0 01-.9.331 3.236 3.236 0 01-2.6-.456c-.81-.511-1.332-1.26-1.563-2.247-.236-1.007-.074-1.936.487-2.789.561-.853 1.402-1.41 2.522-1.673 1.12-.263 2.121-.137 3.003.377.881.514 1.44 1.274 1.676 2.28zm-1.945 2.019c.3-.471.38-1.01.237-1.618-.143-.607-.454-1.06-.935-1.358-.478-.288-1.04-.357-1.685-.205-.646.151-1.118.463-1.419.934-.297.48-.375 1.024-.233 1.632.143.607.453 1.055.931 1.344.48.297 1.044.371 1.69.219.645-.151 1.116-.467 1.414-.948zM71.393 116.804c.969.974 1.486 2.25 1.553 3.828.067 1.578-.34 2.894-1.223 3.946-.882 1.052-1.98 1.606-3.296 1.662-1.315.056-2.457-.403-3.425-1.376-.968-.974-1.486-2.25-1.553-3.828-.067-1.578.34-2.894 1.223-3.946.882-1.052 1.981-1.607 3.296-1.662 1.315-.056 2.457.403 3.425 1.376zm-.914 6.744c.527-.686.765-1.633.714-2.841-.051-1.208-.369-2.132-.952-2.77-.593-.639-1.328-.939-2.205-.902-.876.037-1.578.399-2.105 1.085-.537.686-.78 1.633-.729 2.841.052 1.208.374 2.131.967 2.77.583.639 1.313.939 2.19.902.877-.037 1.583-.399 2.12-1.085zM49.481 116.337c.157.322.175.658.054 1.009-.121.35-.343.603-.665.76a1.271 1.271 0 01-1.009.054 1.273 1.273 0 01-.76-.665 1.273 1.273 0 01-.054-1.009c.12-.35.343-.604.665-.761a1.27 1.27 0 011.009-.053c.35.121.603.342.76.665zM38.326 109.088c.22 1.452-.13 2.796-1.05 4.032-.92 1.236-2.106 1.957-3.56 2.163-1.454.206-2.81-.16-4.07-1.097-1.258-.938-1.998-2.132-2.218-3.585-.22-1.452.13-2.796 1.05-4.032.92-1.236 2.106-1.957 3.56-2.163 1.454-.206 2.81.16 4.07 1.097 1.258.938 1.998 2.133 2.218 3.585zm-4.932 4.569c.974-.149 1.8-.678 2.474-1.585.675-.908.945-1.85.809-2.826-.136-.977-.646-1.794-1.53-2.452-.876-.652-1.801-.903-2.775-.754-.983.144-1.811.67-2.486 1.577-.675.908-.941 1.853-.797 2.835.136.977.642 1.791 1.518 2.443.884.658 1.813.912 2.787.762zM31.524 102.191l-7.596 6.862-5.048-5.59 1.194-1.079 3.92 4.342 1.628-1.47-1.862-2.063c-.79-.875-1.187-1.765-1.19-2.67-.008-.912.335-1.681 1.03-2.309.694-.627 1.494-.89 2.4-.789.9.094 1.745.579 2.535 1.455l2.99 3.311zm-2.32-.17l-1.863-2.063c-.457-.507-.905-.792-1.343-.855-.446-.058-.853.08-1.222.414-.37.333-.544.721-.526 1.164.012.449.247.927.704 1.434l1.862 2.062 2.387-2.156zM23.27 97.391l-.926-1.49c.205-.243.358-.533.458-.87.2-.733.06-1.485-.418-2.255-.797-1.284-1.651-1.643-2.562-1.077-.364.226-.562.573-.594 1.04-.036.459.146 1.011.547 1.657l.694 1.119-1.366.849-.695-1.119c-.339-.546-.712-.889-1.119-1.026a1.288 1.288 0 00-1.164.12 1.289 1.289 0 00-.625.99c-.057.427.084.913.424 1.46.432.695.973 1.105 1.624 1.23.306.05.588.041.844-.026l.934 1.503a4.55 4.55 0 01-1.69.19c-1.302-.157-2.328-.84-3.079-2.049-.596-.96-.824-1.881-.681-2.761.128-.884.549-1.547 1.261-1.99.572-.354 1.188-.433 1.85-.236.26.068.535.196.824.384l.062-.038a2.982 2.982 0 01-.044-1.04c.132-.806.53-1.414 1.192-1.825.762-.474 1.577-.555 2.446-.246.864.301 1.626.982 2.284 2.042.833 1.342 1.006 2.658.521 3.946a4.182 4.182 0 01-1.003 1.518zM19.427 87.409c-.596 1.342-1.614 2.286-3.054 2.833-1.44.547-2.829.516-4.165-.093-1.336-.609-2.283-1.647-2.84-3.114-.556-1.468-.537-2.873.06-4.215.596-1.342 1.614-2.287 3.054-2.833 1.44-.547 2.829-.516 4.165.092 1.336.609 2.283 1.647 2.84 3.115.556 1.467.537 2.872-.06 4.215zm-6.615 1.197c.901.398 1.881.397 2.938-.005 1.058-.401 1.792-1.05 2.203-1.947.41-.896.42-1.86.03-2.89-.388-1.02-1.032-1.73-1.934-2.128-.906-.407-1.887-.41-2.944-.009-1.058.402-1.79 1.055-2.197 1.96-.411.897-.423 1.856-.035 2.877.39 1.03 1.037 1.744 1.939 2.142zM17.392 77.78L7.294 79.469l-.734-4.4c-.195-1.163-.024-2.156.51-2.976.525-.83 1.267-1.324 2.23-1.485.96-.16 1.829.065 2.603.677.763.604 1.242 1.488 1.436 2.651l.458 2.741 3.318-.554.277 1.659zm-5.182-.838l-.457-2.741c-.118-.702-.365-1.21-.744-1.522-.39-.32-.863-.434-1.42-.34-.559.092-.965.353-1.22.781-.265.42-.34.981-.223 1.683l.458 2.741 3.606-.602zM13.19 62.173l.248-1.737c.31-.025.593-.117.853-.277.593-.358.947-.938 1.062-1.739.095-.666.007-1.215-.266-1.648-.281-.444-.668-.702-1.16-.773-.56-.08-1.024.036-1.394.347-.378.3-.614.774-.706 1.42l-.353 2.462-1.448-.208-1.735-3.352-.073-.01-.602 4.198-1.592-.229.955-6.659 1.578.226 1.522 2.878.186.766.072.01.005-.236c.016-.322.029-.512.037-.57.13-.908.553-1.62 1.267-2.138.715-.518 1.555-.708 2.52-.57.926.134 1.662.604 2.206 1.41.544.808.735 1.776.573 2.905-.215 1.496-.904 2.525-2.068 3.087-.498.243-1.06.39-1.688.437zM13.97 53.87a3.902 3.902 0 01-1.303-.733c-.428-.36-.752-.678-.972-.952-.226-.287-.5-.665-.822-1.135L8.65 47.893l.595-1.883 2.081 2.975.336.781.07.022-.01-.31a3.68 3.68 0 01.175-.941 3.233 3.233 0 011.722-2.002c.854-.435 1.764-.5 2.73-.195.986.312 1.702.927 2.148 1.845.446.918.495 1.926.148 3.023-.346 1.097-.966 1.893-1.859 2.388-.892.495-1.831.586-2.817.275zm-.741-2.703c.251.498.674.842 1.27 1.03.594.188 1.142.152 1.644-.108.492-.264.838-.712 1.038-1.344.2-.632.174-1.198-.077-1.696-.26-.502-.688-.847-1.283-1.035-.595-.188-1.139-.15-1.631.113-.502.26-.853.707-1.053 1.339-.2.632-.169 1.199.092 1.7zM19.325 44.848c-1.331.336-2.693.13-4.084-.618-1.391-.747-2.314-1.77-2.77-3.065-.454-1.296-.37-2.524.252-3.684.623-1.16 1.6-1.907 2.932-2.243 1.331-.336 2.693-.13 4.084.617 1.391.748 2.314 1.77 2.77 3.066.454 1.296.37 2.524-.253 3.684-.622 1.16-1.6 1.907-2.93 2.243zm-5.333-4.228c.321.804 1.014 1.492 2.08 2.064 1.064.573 2.02.77 2.867.595.852-.184 1.485-.663 1.9-1.436.416-.773.463-1.561.142-2.365-.317-.812-1.007-1.504-2.072-2.076-1.065-.573-2.024-.767-2.875-.582-.847.175-1.478.65-1.893 1.423-.416.773-.465 1.565-.149 2.377zM30.618 26.47a1.272 1.272 0 01-.898-.463 1.272 1.272 0 01-.321-.958c.027-.358.181-.657.463-.898.28-.242.6-.349.958-.321.357.027.656.181.897.463.242.28.349.6.321.958a1.273 1.273 0 01-.463.898c-.28.241-.6.348-.957.32zM42.615 20.371c-1.363-.545-2.345-1.528-2.945-2.946-.6-1.42-.62-2.808-.062-4.166.558-1.359 1.56-2.344 3.006-2.956 1.445-.611 2.85-.644 4.213-.099 1.363.546 2.345 1.528 2.945 2.947.6 1.418.62 2.807.062 4.166-.558 1.358-1.56 2.343-3.006 2.955-1.445.611-2.85.644-4.213.099zm-1.443-6.567c-.364.916-.326 1.895.114 2.937.44 1.041 1.117 1.75 2.027 2.128.911.376 1.874.35 2.889-.08 1.006-.425 1.69-1.096 2.055-2.012.373-.92.339-1.9-.101-2.943-.44-1.041-1.121-1.749-2.041-2.122-.91-.377-1.87-.352-2.875.073-1.015.43-1.704 1.102-2.068 2.019zM51.898 17.987L49.866 7.954l7.381-1.497.32 1.577-5.734 1.162.436 2.15 2.723-.552c1.157-.234 2.124-.122 2.904.337.789.457 1.276 1.144 1.462 2.061.186.918.004 1.74-.545 2.469-.539.726-1.387 1.206-2.543 1.44l-4.372.886zm1.33-1.91l2.723-.553c.669-.135 1.142-.375 1.42-.72.277-.355.366-.776.267-1.263-.099-.487-.343-.836-.734-1.045-.393-.219-.923-.26-1.592-.125l-2.724.552.64 3.154zM60.52 13.269l1.755-.034c.103.3.274.58.513.838.528.546 1.245.81 2.151.793 1.511-.03 2.256-.58 2.236-1.653-.009-.429-.206-.776-.591-1.041-.376-.266-.944-.392-1.704-.377l-1.316.025-.031-1.608 1.316-.026c.643-.012 1.128-.158 1.454-.437.336-.28.5-.634.492-1.063a1.288 1.288 0 00-.532-1.043c-.337-.266-.827-.393-1.47-.381-.82.016-1.448.272-1.887.768-.2.238-.337.484-.41.74l-1.77.033c.136-.558.37-1.075.702-1.55.799-1.039 1.91-1.572 3.333-1.6 1.131-.021 2.039.254 2.723.826.693.562 1.048 1.262 1.064 2.1.013.673-.234 1.243-.742 1.711-.192.19-.442.36-.751.512l.001.073c.334.11.64.275.917.494.624.525.944 1.177.96 1.957.016.896-.33 1.64-1.04 2.229-.7.588-1.675.895-2.923.919-1.579.03-2.798-.492-3.658-1.568a4.181 4.181 0 01-.792-1.637zM71.03 15.03c-.85-1.198-1.141-2.556-.876-4.073.265-1.518 1-2.696 2.207-3.534 1.205-.838 2.581-1.122 4.127-.851 1.547.27 2.745 1.004 3.594 2.202.85 1.198 1.142 2.556.877 4.073-.266 1.518-1.001 2.696-2.207 3.534-1.206.838-2.582 1.122-4.128.851-1.546-.27-2.744-1.005-3.594-2.202zm2.35-6.3c-.804.572-1.302 1.415-1.497 2.53-.195 1.113-.012 2.076.549 2.886.56.811 1.384 1.312 2.47 1.502 1.075.188 2.014-.004 2.817-.576.812-.57 1.316-1.413 1.51-2.527.196-1.114.008-2.078-.563-2.89-.56-.811-1.38-1.31-2.455-1.499-1.085-.19-2.029.002-2.832.574zM80.542 18.226l3.703-9.544 4.158 1.614c1.1.427 1.866 1.08 2.299 1.96.445.873.492 1.764.14 2.673-.354.91-.99 1.54-1.912 1.894-.91.348-1.913.308-3.013-.119l-2.59-1.005-1.217 3.136-1.568-.61zm3.366-4.027l2.59 1.005c.664.258 1.227.304 1.689.138.474-.171.814-.52 1.018-1.048.205-.527.188-1.01-.05-1.447-.226-.443-.67-.794-1.334-1.051l-2.59-1.006-1.323 3.409zM95.847 22.415l1.369 1.098c-.136.279-.201.57-.195.875.006.693.325 1.293.956 1.8.524.42 1.043.624 1.554.61.525-.017.944-.218 1.255-.606.354-.441.491-.9.411-1.377-.067-.478-.354-.922-.864-1.331l-1.939-1.557.916-1.14 3.768.211.045-.057-3.307-2.655 1.007-1.255 5.246 4.212-.998 1.243-3.252-.153-.753-.23-.046.057.201.124c.269.178.427.286.472.323.715.573 1.114 1.3 1.196 2.179.082.878-.181 1.698-.792 2.459-.585.73-1.364 1.124-2.335 1.181-.972.058-1.902-.27-2.792-.984-1.178-.946-1.713-2.063-1.605-3.352a4.601 4.601 0 01.482-1.675zM102.703 27.406c.349-.313.78-.562 1.294-.748.528-.185.966-.303 1.314-.353.362-.05.827-.093 1.395-.131l3.848-.308 1.318 1.47-3.619.28-.843-.109-.055.049.272.15c.253.165.493.375.721.63.638.71.92 1.545.847 2.5-.059.957-.466 1.774-1.221 2.45-.769.69-1.662.994-2.68.911-1.017-.083-1.909-.553-2.677-1.41-.768-.856-1.138-1.795-1.11-2.816.028-1.02.427-1.875 1.196-2.565zm2.704.738c-.557-.038-1.068.152-1.532.569-.465.416-.712.907-.743 1.471-.024.558.186 1.084.628 1.578.443.494.942.76 1.5.797.564.03 1.079-.162 1.543-.58.465-.416.709-.903.732-1.461.031-.565-.175-1.094-.617-1.588-.443-.493-.946-.756-1.511-.786zM107.824 36.715c.387-1.317 1.256-2.386 2.607-3.204 1.351-.819 2.7-1.094 4.047-.828 1.347.267 2.361.964 3.043 2.09.682 1.125.829 2.347.442 3.665-.388 1.318-1.257 2.386-2.608 3.204-1.351.819-2.7 1.095-4.047.828-1.347-.267-2.361-.963-3.043-2.09-.682-1.125-.829-2.347-.441-3.665zm6.349-2.445c-.854-.132-1.799.116-2.833.742-1.034.627-1.69 1.35-1.97 2.168-.274.828-.184 1.617.271 2.367.454.75 1.109 1.192 1.964 1.324.86.14 1.807-.103 2.841-.73 1.034-.626 1.688-1.353 1.962-2.18.279-.82.192-1.604-.263-2.355-.454-.75-1.112-1.196-1.972-1.336zM117.87 55.831c.206-.293.491-.472.856-.535.365-.064.694.007.988.213.293.206.472.491.536.856.063.365-.008.694-.214.988a1.271 1.271 0 01-.856.536 1.274 1.274 0 01-.988-.214 1.274 1.274 0 01-.536-.856 1.276 1.276 0 01.214-.988z" fill="#212121"/></svg>