<?xml version="1.0" encoding="utf-8"?><svg width="60" height="60" fill="none" xmlns="http://www.w3.org/2000/svg" viewBox="0 0 60 60"><path fill-rule="evenodd" clip-rule="evenodd" d="M12.91 45.723h.837l-.414-1.437-.423 1.437zm-1.715 1.419l1.46-4.15h1.35l1.462 4.15h-1.321l-.156-.548h-1.32l-.161.548h-1.314zm4.537 0v-4.15h1.334v3.047h1.813v1.103h-3.147zm4.909-2.286h.427c.277 0 .464-.03.557-.093.094-.063.14-.172.14-.33 0-.158-.044-.27-.133-.332-.091-.062-.279-.093-.564-.093h-.427v.848zm-1.334 2.286v-4.15h1.708c.379 0 .677.022.898.067.22.044.405.114.554.212.192.129.334.289.428.48.093.192.142.42.142.682 0 .463-.138.82-.412 1.067-.274.247-.67.37-1.187.37h-.797v1.27h-1.334v.002zm4.167 0v-4.15h1.356v4.15h-1.356zm2.056 0v-4.15h1.263l1.374 2.276v-2.276h1.27v4.15h-1.27l-1.374-2.268v2.268H25.53zm4.584 0v-4.15h3.316v.993h-1.985v.555h1.678v.953h-1.677v.642h1.984v1.009h-3.316v-.002zm5.944-.97h.617c.205 0 .35-.028.437-.09.087-.06.13-.159.13-.297 0-.138-.045-.234-.135-.294-.086-.058-.236-.087-.445-.087h-.606v.769h.002zm0-1.523h.55c.183 0 .315-.026.388-.082.076-.056.114-.147.114-.276 0-.138-.04-.232-.12-.283-.08-.052-.268-.076-.56-.076h-.37v.715l-.002.002zm-1.291 2.493v-4.15h1.701c.365 0 .633.009.8.029.167.02.31.049.43.094a.97.97 0 01.483.367c.111.167.167.37.167.608a.957.957 0 01-.125.492.962.962 0 01-.376.346c.22.078.383.198.488.354.104.158.158.363.158.615 0 .251-.051.458-.154.641-.102.18-.252.32-.445.419a1.52 1.52 0 01-.453.142 5.68 5.68 0 01-.84.043h-1.834zm4.283 0v-4.15h1.356v4.15H39.05zm2.056 0v-4.15h1.32v1.374l1.194-1.374h1.546l-1.481 1.53 1.672 2.62H43.77l-1.013-1.662-.33.34v1.322h-1.32zm4.387 0v-4.15h3.32v.993h-1.986v.555h1.678v.953h-1.678v.642h1.985v1.009h-3.319v-.002zM30 0c8.283 0 15.785 3.359 21.213 8.787C56.641 14.215 60 21.717 60 30c0 8.283-3.359 15.785-8.787 21.213C45.785 56.641 38.283 60 30 60c-8.284 0-15.785-3.359-21.213-8.787C3.359 45.785 0 38.286 0 30c0-8.286 3.359-15.783 8.787-21.213C14.217 3.359 21.717 0 30 0zm19.269 10.733a27.162 27.162 0 017.98 19.27c0 7.525-3.049 14.337-7.98 19.268A27.162 27.162 0 0130 57.25a27.162 27.162 0 01-19.269-7.98 27.162 27.162 0 01-7.98-19.269c0-7.526 3.049-14.337 7.98-19.268A27.162 27.162 0 0130 2.752c7.526 0 14.337 3.05 19.269 7.98zM27.717 29.904c-.445-.044-.964-.343-.363-.623 1.14-.533 5.604.352 6.047-2.176.581-3.324-8.134-3.221-9.807-3.217 1.838.17 3.985.577 5.457 1.305.586.317 1.481 1.18.606 1.711-1.045.635-6.357-.443-6.635 2.323-.259 2.557 2.978 2.648 4.677 2.936 4.167.708 5.633 5.481-2.501 5.29l-12.952-.303 6.548-14.36 2.33 3.521 7.702-12.361 3.045 5.72 1.085-1.593 11.092 22.639 10.123.296L30 5.845l-9.157 15.662-2.363-2.503L5.833 41.012l28.123-.822c2.915-.015 6.608-1.21 5.922-4.782-.909-4.744-8.399-5.134-12.161-5.504z" fill="currentColor"/></svg>