<?xml version="1.0" encoding="utf-8"?><svg width="40" height="40" fill="none" xmlns="http://www.w3.org/2000/svg" viewBox="0 0 40 40"><path d="M9.375 0H40v30.625L30.625 40H0V9.375L9.375 0z" fill="currentColor"/><path d="M20.949 27.5c-7.26 0-11.401-4.927-11.574-13.125h3.637c.12 6.017 2.8 8.566 4.924 9.092v-9.092h3.424v5.19c2.098-.224 4.3-2.589 5.044-5.19h3.425a9.96 9.96 0 01-1.64 3.752 10.073 10.073 0 01-3.02 2.79c1.328.654 2.501 1.578 3.442 2.713a10.343 10.343 0 012.014 3.87h-3.77a6.483 6.483 0 00-2.032-3.166 6.589 6.589 0 00-3.463-1.524v4.69h-.411z" fill="#fff"/></svg>