<?xml version="1.0" encoding="utf-8"?><svg width="40" height="40" fill="none" xmlns="http://www.w3.org/2000/svg" viewBox="0 0 40 40"><path d="M9.375 0H40v30.625L30.625 40H0V9.375L9.375 0z" fill="currentColor"/><path fill-rule="evenodd" clip-rule="evenodd" d="M28.302 12.784a2.705 2.705 0 011.879 1.938c.444 1.71.444 5.278.444 5.278s0 3.568-.444 5.277a2.705 2.705 0 01-1.879 1.938c-1.657.458-8.302.458-8.302.458s-6.644 0-8.302-.457a2.705 2.705 0 01-1.879-1.939C9.375 23.567 9.375 20 9.375 20s0-3.567.444-5.278a2.705 2.705 0 011.879-1.938c1.656-.458 8.302-.458 8.302-.458s6.645 0 8.302.458zM23.542 20l-5.903 2.951v-5.903L23.542 20z" fill="#fff"/></svg>